# AST/ASF file generated using VICON BodyLanguage
# -----------------------------------------------
:version 1.10
:name VICON
:units
  mass 1.0
  length 0.45
  angle deg
:documentation
   .ast/.asf automatically generated from VICON data using
   VICON BodyBuilder and BodyLanguage model FoxedUp or BRILLIANT.MOD
:root
   order TX TY TZ RX RY RZ
   axis XYZ
   position 0 0 0  
   orientation 0 0 0 
:bonedata
  begin
     id 1 
     name lhipjoint
     direction 0.570549 -0.739093 0.358072 
     length 2.41801 
     axis 0 0 0  XYZ
  end
  begin
     id 2 
     name lfemur
     direction 0.34202 -0.939693 0  
     length 7.44434  
     axis 0 0 20  XYZ
    dof rx ry rz
    limits (-160.0 20.0)
           (-70.0 70.0)
           (-60.0 70.0)
  end
  begin
     id 3 
     name ltibia
     direction 0.34202 -0.939693 0   
     length 7.60047   
     axis 0 0 20   XYZ
    dof rx
    limits (-10.0 170.0)
  end
  begin
     id 4 
     name lfoot
     direction 0.0909041 -0.249757 0.964032   
     length 2.03437   
     axis -90 7.62852e-016 20   XYZ
    dof rx rz
    limits (-45.0 90.0)
           (-70.0 20.0)
  end
  begin
     id 5 
     name ltoes
     direction 1.53547e-011 -4.2174e-011 1   
     length 1.02054   
     axis -90 7.62852e-016 20   XYZ
    dof rx
    limits (-90.0 20.0)
  end
  begin
     id 6 
     name rhipjoint
     direction -0.558096 -0.746754 0.361784   
     length 2.3932  
     axis 0 0 0  XYZ 
  end
  begin
     id 7 
     name rfemur
     direction -0.34202 -0.939693 0   
     length 7.3886   
     axis 0 0 -20   XYZ
    dof rx ry rz
    limits (-160.0 20.0)
           (-70.0 70.0)
           (-70.0 60.0)
  end
  begin
     id 8 
     name rtibia
     direction -0.34202 -0.939693 0   
     length 7.4839   
     axis 0 0 -20   XYZ
    dof rx
    limits (-10.0 170.0)
 end
 begin
     id 9 
     name rfoot
     direction -0.114619 -0.314914 0.942174   
     length 2.25127  
     axis -90 -7.62852e-016 -20   XYZ
    dof rx rz
    limits (-45.0 90.0)
           (-20.0 70.0)
  end
  begin
     id 10 
     name rtoes
     direction -1.53518e-011 -4.21881e-011 1   
     length 1.11821   
     axis -90 -7.62852e-016 -20   XYZ
    dof rx
    limits (-90.0 20.0)
  end
  begin
     id 11 
     name lowerback
     direction -0.00902269 0.996426 -0.0839821   
     length 2.25052   
     axis 0 0 0   XYZ
    dof rx ry rz
    limits (-20.0 45.0)
           (-30.0 30.0)
           (-30.0 30.0)
  end
  begin
     id 12 
     name upperback
     direction 0.0370973 0.999169 -0.0168941   
     length 2.24876   
     axis 0 0 0   XYZ
    dof rx ry rz
    limits (-20.0 45.0)
           (-30.0 30.0)
           (-30.0 30.0)
  end
  begin
     id 13 
     name thorax
     direction 0.0402726 0.998931 0.0227027   
     length 2.26408   
     axis 0 0 0   XYZ
    dof rx ry rz
    limits (-20.0 45.0)
           (-30.0 30.0)
           (-30.0 30.0)
  end
  begin
     id 14 
     name lowerneck
     direction -0.0733697 0.98508 0.155675   
     length 1.58204   
     axis 0 0 0   XYZ
    dof rx ry rz
    limits (-20.0 45.0)
           (-30.0 30.0)
           (-30.0 30.0)
  end
  begin
     id 15 
     name upperneck
     direction 0.0426554 0.993501 -0.105526   
     length 1.61222   
     axis 0 0 0   XYZ
    dof rx ry rz
    limits (-20.0 45.0)
           (-30.0 30.0)
           (-30.0 30.0)
  end
  begin
     id 16
     name head
     direction 0.020792 0.998384 -0.0528868  
     length 1.61527  
     axis 0 0 0   XYZ
    dof rx ry rz
    limits (-20.0 45.0)
           (-30.0 30.0)
           (-30.0 30.0)
  end
  begin
     id 17 
     name lclavicle
     direction 0.967109 0.155462 -0.201325  
     length 3.59357  
     axis 0 0 0   XYZ
    dof ry rz
    limits (-20.0 10.0)
           (0.0 20.0)
  end
  begin
     id 18 
     name lhumerus
     direction 1 -4.48968e-011 2.38195e-027   
     length 5.38154   
     axis 180 -30 -90   XYZ
    dof rx ry rz
    limits (-60.0 90.0)
           (-90.0 90.0)
           (-90.0 90.0)
  end
  begin
     id 19
     name lradius
     direction 1 -4.48961e-011 4.85371e-027   
     length 3.33312   
     axis 180 -30 -90   XYZ
    dof rx
    limits (-10.0 170.0)
  end
  begin
     id 20
     name lwrist
     direction 1 -4.48961e-011 4.76515e-027   
     length 1.66656   
     axis -3.27502e-015 90 90   XYZ
    dof ry
    limits (-180.0 0.0)
 end
  begin
     id 21 
     name lhand
     direction 1 -4.48951e-011 9.53074e-027   
     length 0.710789   
     axis -6.08098e-015 90 90   XYZ
    dof rx rz
    limits (-90.0 90.0)
           (-45.0 45.0)
  end
  begin
     id 22 
     name lfingers
     direction 1 -4.48953e-011 1.90613e-026   
     length 0.573057   
     axis -1.21619e-014 90 90   XYZ
    dof rx
    limits (0.0 90.0)
  end
  begin
     id 23
     name lthumb
     direction 0.707107 -6.34973e-011 0.707107   
     length 0.822798   
     axis -90 45 -9.86923e-015   XYZ
    dof rx rz
    limits (-45.0 45.0)
           (-45.0 45.0)
  end
  begin
     id 24 
     name rclavicle
     direction -0.9585 0.265289 -0.104398   
     length 3.42039  
     axis 0 0 0   XYZ 
    dof ry rz
    limits (-10.0 20.0)
           (-20.0 0.0)
  end
  begin
     id 25 
     name rhumerus
     direction -1 -4.48977e-011 2.21478e-027  
     length 5.16954   
     axis 180 30 90   XYZ
    dof rx ry rz
    limits (-90.0 60.0)
           (-90.0 90.0)
           (-90.0 90.0)
  end
  begin
     id 26 
     name rradius
     direction -1 -4.48967e-011 5.63677e-027   
     length 3.38287   
     axis 180 30 90   XYZ
    dof rx
    limits (-10.0 170.0)
  end
  begin
     id 27 
     name rwrist
     direction -1 -4.48967e-011 4.76501e-027   
     length 1.69144   
     axis -3.27502e-015 -90 -90   XYZ
    dof ry
    limits (-180.0 0.0)
  end
  begin
     id 28
     name rhand
     direction -1 -4.48902e-011 9.53292e-027   
     length 0.817967   
     axis -6.08098e-015 -90 -90   XYZ
    dof rx rz
    limits (-90.0 90.0)
           (-45.0 45.0)
  end
  begin
     id 29
     name rfingers
     direction -1 -4.49012e-011 1.90561e-026   
     length 0.659466   
     axis -1.21619e-014 -90 -90   XYZ
    dof rx
    limits (0.0 90.0)
  end
  begin
     id 30
     name rthumb
     direction -0.707107 -6.34944e-011 0.707107   
     length 0.946865   
     axis -90 -45 9.86923e-015   XYZ
    dof rx rz
    limits (-45.0 45.0)
           (-45.0 45.0)
  end
:hierarchy
  begin
    root lhipjoint rhipjoint lowerback
    lhipjoint lfemur
    lfemur ltibia
    ltibia lfoot
    lfoot ltoes
    rhipjoint rfemur
    rfemur rtibia
    rtibia rfoot
    rfoot rtoes
    lowerback upperback
    upperback thorax
    thorax lowerneck lclavicle rclavicle
    lowerneck upperneck
    upperneck head
    lclavicle lhumerus
    lhumerus lradius
    lradius lwrist
    lwrist lhand lthumb
    lhand lfingers
    rclavicle rhumerus
    rhumerus rradius
    rradius rwrist
    rwrist rhand rthumb
    rhand rfingers
  end

#!OML:ASF F:\twosubjects\two\wednesday\Session 1\Justin1.ASF
:FULLY-SPECIFIED
:DEGREES
506
root 6.05016 17.7277 -1.41226 -179.85 -55.4115 -539.605
lowerback 3.36421 0.148965 -3.51643
upperback 2.24864 0.0532799 1.74994
thorax 0.420119 -0.0439947 3.77419
lowerneck -17.4852 -7.41646 -13.0297
upperneck 18.607 -8.79184 8.51192
head 9.75126 -4.1719 3.8606
rclavicle 1.00138e-014 1.19271e-015
rhumerus 31.5767 6.05333 -53.0423
rradius 30.9099
rwrist 5.63838
rhand -22.0409 29.1694
rfingers 7.12502
rthumb 4.3693 -0.765552
lclavicle 1.00138e-014 1.19271e-015
lhumerus 24.9904 -16.3014 54.6544
lradius 42.4482
lwrist -17.1989
lhand -5.01638 31.5496
lfingers 7.12502
lthumb 20.7777 60.4572
rfemur -5.12959 -6.76835 11.6627
rtibia 42.99
rfoot -10.2367 -16.8833
rtoes 12.2494
lfemur -17.9175 7.23091 -15.1627
ltibia 27.9666
lfoot -8.82519 -5.24844
ltoes -12.4624
507
root 5.98009 17.7413 -1.43977 -180.031 -55.6414 -539.203
lowerback 3.35568 0.0976176 -3.27115
upperback 2.16074 -0.0060394 1.70432
thorax 0.339119 -0.0665504 3.59001
lowerneck -17.3503 -7.51623 -12.8908
upperneck 18.5156 -9.06644 8.84988
head 9.73712 -4.25904 3.91745
rclavicle -1.56046e-014 1.61016e-014
rhumerus 31.1803 5.44442 -53.1343
rradius 30.7247
rwrist 5.63345
rhand -22.0828 28.8441
rfingers 7.12502
rthumb 4.32886 -1.09166
lclavicle -1.56046e-014 1.61016e-014
lhumerus 25.3675 -17.2009 54.1838
lradius 42.6462
lwrist -16.9528
lhand -4.69116 31.4915
lfingers 7.12502
lthumb 21.0901 60.3646
rfemur -6.09673 -7.12904 11.9952
rtibia 43.8258
rfoot -10.3562 -15.4772
rtoes 9.38416
lfemur -17.8523 7.59028 -15.0134
ltibia 27.9143
lfoot -8.76787 -5.86002
ltoes -11.0234
508
root 5.91654 17.75 -1.45665 -180.316 -55.8674 -538.753
lowerback 3.65177 0.0520633 -2.9151
upperback 1.97616 -0.0618289 1.69136
thorax -0.0125337 -0.0804482 3.37805
lowerneck -17.2433 -7.72511 -12.9068
upperneck 18.502 -9.41409 9.0214
head 9.7648 -4.40753 3.92777
rclavicle -2.43014e-014 3.77691e-015
rhumerus 30.8589 5.27835 -52.711
rradius 30.465
rwrist 5.31199
rhand -22.6338 28.4419
rfingers 7.12502
rthumb 3.79676 -1.50406
lclavicle -2.43014e-014 3.77691e-015
lhumerus 25.6311 -18.0897 53.9257
lradius 42.8136
lwrist -16.9614
lhand -4.69371 31.9187
lfingers 7.12502
lthumb 21.0877 60.792
rfemur -7.00271 -7.38461 12.3463
rtibia 44.503
rfoot -10.5981 -14.5017
rtoes 8.5027
lfemur -17.7668 7.51357 -14.8129
ltibia 27.9146
lfoot -8.72489 -5.93449
ltoes -9.40052
509
root 5.84821 17.7548 -1.46523 -179.653 -56.0676 -539.544
lowerback 3.94417 -0.0684108 -3.404
upperback 1.91182 -0.245682 1.68984
thorax -0.224191 -0.170143 3.6612
lowerneck -17.3487 -7.92515 -12.9459
upperneck 18.3606 -9.59909 8.80886
head 9.74763 -4.51016 3.82483
rclavicle 9.23355e-014 -3.04141e-014
rhumerus 30.7854 5.01461 -52.3897
rradius 30.236
rwrist 5.6261
rhand -22.7515 28.4143
rfingers 7.12502
rthumb 3.68305 -1.53361
lclavicle 9.23355e-014 -3.04141e-014
lhumerus 25.7332 -18.3638 54.1407
lradius 42.8807
lwrist -17.126
lhand -5.03431 32.3351
lfingers 7.12502
lthumb 20.7604 61.2445
rfemur -7.74909 -7.59218 11.8499
rtibia 44.9868
rfoot -10.7214 -13.0694
rtoes 7.29253
lfemur -17.5879 7.13819 -15.41
ltibia 28.001
lfoot -8.88218 -5.78311
ltoes -8.58795
510
root 5.7811 17.7676 -1.48496 -178.966 -56.2603 -540.343
lowerback 3.94773 -0.0709547 -3.99619
upperback 2.0351 -0.271104 1.61798
thorax -0.0933042 -0.192359 3.92236
lowerneck -17.1566 -8.11045 -12.9567
upperneck 17.7848 -9.88274 9.0624
head 9.56013 -4.61536 3.87241
rclavicle 9.39258e-015 1.11319e-014
rhumerus 30.6321 3.92702 -52.4915
rradius 29.9769
rwrist 6.14041
rhand -22.5112 28.5107
rfingers 7.12502
rthumb 3.91513 -1.43308
lclavicle 9.39258e-015 1.11319e-014
lhumerus 26.3331 -18.8117 54.0384
lradius 43.1103
lwrist -17.0721
lhand -5.08497 32.6054
lfingers 7.12502
lthumb 20.7118 61.5202
rfemur -8.43077 -7.94827 11.4471
rtibia 45.2749
rfoot -10.5737 -11.4666
rtoes 4.52568
lfemur -17.3764 6.79082 -15.9391
ltibia 28.0588
lfoot -8.99328 -5.82826
ltoes -6.74211
511
root 5.7127 17.7825 -1.50846 -178.755 -56.4341 -540.487
lowerback 4.86992 -0.160948 -2.81379
upperback 1.3611 -0.375358 0.45958
thorax -1.30964 -0.197079 2.07369
lowerneck -16.4195 -7.98912 -11.9823
upperneck 17.8247 -10.3167 9.94616
head 9.48821 -4.70404 3.97806
rclavicle -1.06769e-013 2.88238e-015
rhumerus 29.1012 2.46772 -54.8688
rradius 29.4818
rwrist 7.34155
rhand -22.737 28.3773
rfingers 7.12502
rthumb 3.6971 -1.57043
lclavicle -1.06769e-013 2.88238e-015
lhumerus 26.5782 -20.7775 52.0125
lradius 43.4438
lwrist -16.4734
lhand -5.27602 32.6775
lfingers 7.12502
lthumb 20.5282 61.6122
rfemur -9.20063 -8.1916 11.3945
rtibia 45.4296
rfoot -10.8087 -10.0397
rtoes 6.1312
lfemur -17.2054 6.67317 -16.092
ltibia 28.0478
lfoot -9.02226 -5.72253
ltoes -5.06401
512
root 5.63087 17.7798 -1.52191 -177.835 -56.6397 -541.549
lowerback 4.4644 -0.325463 -3.77248
upperback 1.6377 -0.621812 0.725756
thorax -0.770399 -0.336632 2.89511
lowerneck -16.2612 -8.1343 -12.4932
upperneck 17.1655 -10.3458 10.0452
head 9.27061 -4.73919 4.0905
rclavicle 5.29264e-015 9.54166e-015
rhumerus 29.5965 2.18928 -54.2002
rradius 29.3408
rwrist 7.52671
rhand -23.0298 27.7373
rfingers 7.12502
rthumb 3.41432 -2.21511
lclavicle 5.29264e-015 9.54166e-015
lhumerus 27.0029 -20.5239 52.4541
lradius 43.3917
lwrist -16.3265
lhand -5.46141 32.8177
lfingers 7.12502
lthumb 20.35 61.7715
rfemur -9.89701 -8.41571 10.5155
rtibia 45.583
rfoot -11.7907 -9.07057
rtoes 10.2626
lfemur -16.9564 6.69314 -16.9625
ltibia 28.0031
lfoot -9.15697 -5.44885
ltoes -5.58083
